# Blender 3.5.1
# www.blender.org
mtllib bone.mtl
o bone
v -0.100000 0.100000 0.100000
v -0.100000 0.100000 -0.100000
v 0.100000 0.100000 0.100000
v 0.100000 0.100000 -0.100000
v 0.000000 1.000000 0.000000
v 0.000000 -0.000000 0.000000
v 0.000000 -0.050000 0.000000
v 0.036180 -0.022361 0.026286
v -0.013819 -0.022361 0.042532
v -0.044721 -0.022361 0.000000
v -0.013819 -0.022361 -0.042532
v 0.036180 -0.022361 -0.026286
v 0.013819 0.022361 0.042532
v -0.036180 0.022361 0.026286
v -0.036180 0.022361 -0.026286
v 0.013819 0.022361 -0.042532
v 0.044721 0.022361 0.000000
v 0.000000 0.050000 0.000000
v -0.008123 -0.042533 0.025000
v 0.021266 -0.042533 0.015451
v 0.013143 -0.026287 0.040451
v 0.042532 -0.026287 0.000000
v 0.021266 -0.042533 -0.015451
v -0.026287 -0.042533 0.000000
v -0.034409 -0.026287 0.025000
v -0.008123 -0.042533 -0.025000
v -0.034409 -0.026287 -0.025000
v 0.013143 -0.026287 -0.040451
v 0.047553 -0.000000 0.015451
v 0.047553 -0.000000 -0.015451
v 0.000000 -0.000000 0.050000
v 0.029389 -0.000000 0.040451
v -0.047553 -0.000000 0.015451
v -0.029389 -0.000000 0.040451
v -0.029389 -0.000000 -0.040451
v -0.047553 -0.000000 -0.015451
v 0.029389 -0.000000 -0.040451
v 0.000000 -0.000000 -0.050000
v 0.034409 0.026287 0.025000
v -0.013143 0.026287 0.040451
v -0.042532 0.026287 0.000000
v -0.013143 0.026287 -0.040451
v 0.034409 0.026287 -0.025000
v 0.008123 0.042533 0.025000
v 0.026287 0.042533 0.000000
v -0.021266 0.042533 0.015451
v -0.021266 0.042533 -0.015451
v 0.008123 0.042533 -0.025000
v 0.000000 0.950000 0.000000
v 0.036180 0.977639 0.026286
v -0.013819 0.977639 0.042532
v -0.044721 0.977639 0.000000
v -0.013819 0.977639 -0.042532
v 0.036180 0.977639 -0.026286
v 0.013819 1.022361 0.042532
v -0.036180 1.022361 0.026286
v -0.036180 1.022361 -0.026286
v 0.013819 1.022361 -0.042532
v 0.044721 1.022361 0.000000
v 0.000000 1.050000 0.000000
v -0.008123 0.957467 0.025000
v 0.021266 0.957467 0.015451
v 0.013143 0.973713 0.040451
v 0.042532 0.973713 0.000000
v 0.021266 0.957467 -0.015451
v -0.026287 0.957467 0.000000
v -0.034409 0.973713 0.025000
v -0.008123 0.957467 -0.025000
v -0.034409 0.973713 -0.025000
v 0.013143 0.973713 -0.040451
v 0.047553 1.000000 0.015451
v 0.047553 1.000000 -0.015451
v 0.000000 1.000000 0.050000
v 0.029389 1.000000 0.040451
v -0.047553 1.000000 0.015451
v -0.029389 1.000000 0.040451
v -0.029389 1.000000 -0.040451
v -0.047553 1.000000 -0.015451
v 0.029389 1.000000 -0.040451
v 0.000000 1.000000 -0.050000
v 0.034409 1.026287 0.025000
v -0.013143 1.026287 0.040451
v -0.042532 1.026287 0.000000
v -0.013143 1.026287 -0.040451
v 0.034409 1.026287 -0.025000
v 0.008123 1.042533 0.025000
v 0.026287 1.042533 0.000000
v -0.021266 1.042533 0.015451
v -0.021266 1.042533 -0.015451
v 0.008123 1.042533 -0.025000
vn -0.9939 0.1104 -0.0000
vn -0.0000 0.1104 -0.9939
vn 0.9939 0.1104 -0.0000
vn -0.0000 0.1104 0.9939
vn 0.7071 -0.7071 -0.0000
vn -0.0000 -0.7071 -0.7071
vn -0.0000 -0.7071 0.7071
vn -0.7071 -0.7071 -0.0000
vn 0.1024 -0.9435 0.3151
vn 0.7002 -0.6617 0.2680
vn -0.2680 -0.9435 0.1947
vn -0.2680 -0.9435 -0.1947
vn 0.1024 -0.9435 -0.3151
vn 0.9050 -0.3304 0.2680
vn 0.0247 -0.3304 0.9435
vn -0.8897 -0.3304 0.3151
vn -0.5746 -0.3304 -0.7488
vn 0.5346 -0.3304 -0.7779
vn 0.8026 -0.1256 0.5831
vn -0.3066 -0.1256 0.9435
vn -0.9921 -0.1256 -0.0000
vn -0.3066 -0.1256 -0.9435
vn 0.8026 -0.1256 -0.5831
vn 0.4089 0.6617 0.6284
vn -0.4713 0.6617 0.5831
vn -0.7002 0.6617 -0.2680
vn 0.0385 0.6617 -0.7488
vn 0.7240 0.6617 -0.1947
vn 0.2680 0.9435 -0.1947
vn 0.4911 0.7947 -0.3568
vn 0.4089 0.6617 -0.6284
vn -0.1024 0.9435 -0.3151
vn -0.1876 0.7947 -0.5773
vn -0.4713 0.6617 -0.5831
vn -0.3313 0.9435 -0.0000
vn -0.6071 0.7947 -0.0000
vn -0.7002 0.6617 0.2680
vn -0.1024 0.9435 0.3151
vn -0.1876 0.7947 0.5773
vn 0.0385 0.6617 0.7488
vn 0.2680 0.9435 0.1947
vn 0.4911 0.7947 0.3568
vn 0.7240 0.6617 0.1947
vn 0.8897 0.3304 -0.3151
vn 0.7947 0.1876 -0.5773
vn 0.5746 0.3304 -0.7488
vn -0.0247 0.3304 -0.9435
vn -0.3035 0.1876 -0.9342
vn -0.5346 0.3304 -0.7779
vn -0.9050 0.3304 -0.2680
vn -0.9822 0.1876 -0.0000
vn -0.9050 0.3304 0.2680
vn -0.5346 0.3304 0.7779
vn -0.3035 0.1876 0.9342
vn -0.0247 0.3304 0.9435
vn 0.5746 0.3304 0.7488
vn 0.7947 0.1876 0.5773
vn 0.8897 0.3304 0.3151
vn 0.3066 0.1256 -0.9435
vn 0.3035 -0.1876 -0.9342
vn 0.0247 -0.3304 -0.9435
vn -0.8026 0.1256 -0.5831
vn -0.7947 -0.1876 -0.5773
vn -0.8897 -0.3304 -0.3151
vn -0.8026 0.1256 0.5831
vn -0.7947 -0.1876 0.5773
vn -0.5746 -0.3304 0.7488
vn 0.3066 0.1256 0.9435
vn 0.3035 -0.1876 0.9342
vn 0.5346 -0.3304 0.7779
vn 0.9921 0.1256 -0.0000
vn 0.9822 -0.1876 -0.0000
vn 0.9050 -0.3304 -0.2680
vn 0.4713 -0.6617 -0.5831
vn 0.1876 -0.7947 -0.5773
vn -0.0385 -0.6617 -0.7488
vn -0.4089 -0.6617 -0.6284
vn -0.4911 -0.7947 -0.3568
vn -0.7240 -0.6617 -0.1947
vn -0.7240 -0.6617 0.1947
vn -0.4911 -0.7947 0.3568
vn -0.4089 -0.6617 0.6284
vn 0.7002 -0.6617 -0.2680
vn 0.6071 -0.7947 -0.0000
vn 0.3313 -0.9435 -0.0000
vn -0.0385 -0.6617 0.7488
vn 0.1876 -0.7947 0.5773
vn 0.4713 -0.6617 0.5831
vt 0.375000 1.000000
vt 0.375000 0.000000
vt 0.375000 0.250000
vt 0.375000 0.750000
vt 0.375000 0.500000
vt 0.625000 0.250000
vt 0.625000 0.500000
vt 0.625000 0.750000
vt 0.625000 1.000000
vt 0.375000 0.500000
vt 0.375000 0.250000
vt 0.375000 0.750000
vt 0.375000 0.000000
vt 0.181819 0.000000
vt 0.909091 0.000000
vt 0.727273 0.000000
vt 0.545455 0.000000
vt 0.363637 0.000000
vt 0.272728 0.157461
vt 1.000000 0.157461
vt 0.090910 0.157461
vt 0.818182 0.157461
vt 0.636364 0.157461
vt 0.454546 0.157461
vt 0.181819 0.314921
vt 0.000000 0.314921
vt 0.909091 0.314921
vt 0.727273 0.314921
vt 0.545455 0.314921
vt 0.363637 0.314921
vt 0.454546 0.472382
vt 0.636364 0.472382
vt 0.818182 0.472382
vt 0.090910 0.472382
vt 0.272728 0.472382
vt 0.954545 0.078731
vt 0.136365 0.078731
vt 0.318182 0.078731
vt 0.227273 0.078731
vt 0.181819 0.157461
vt 0.363637 0.157461
vt 0.500000 0.078731
vt 0.409092 0.078731
vt 0.772727 0.078731
vt 0.863636 0.078731
vt 0.909091 0.157461
vt 0.590909 0.078731
vt 0.681818 0.078731
vt 0.727273 0.157461
vt 0.545455 0.157461
vt 0.318182 0.236191
vt 0.409092 0.236191
vt 0.136365 0.236191
vt 0.227273 0.236191
vt 0.863636 0.236191
vt 0.045455 0.236191
vt 0.954545 0.236191
vt 0.681818 0.236191
vt 0.772727 0.236191
vt 0.500000 0.236191
vt 0.590909 0.236191
vt 0.272728 0.314921
vt 0.090910 0.314921
vt 0.818182 0.314921
vt 0.636364 0.314921
vt 0.454546 0.314921
vt 0.136365 0.393651
vt 0.227273 0.393651
vt 0.409092 0.393651
vt 0.318182 0.393651
vt 0.863636 0.393651
vt 0.045455 0.393651
vt 0.681818 0.393651
vt 0.772727 0.393651
vt 0.500000 0.393651
vt 0.590909 0.393651
vt 0.181819 0.000000
vt 0.909091 0.000000
vt 0.727273 0.000000
vt 0.545455 0.000000
vt 0.363637 0.000000
vt 0.272728 0.157461
vt 1.000000 0.157461
vt 0.090910 0.157461
vt 0.818182 0.157461
vt 0.636364 0.157461
vt 0.454546 0.157461
vt 0.181819 0.314921
vt 0.000000 0.314921
vt 0.909091 0.314921
vt 0.727273 0.314921
vt 0.545455 0.314921
vt 0.363637 0.314921
vt 0.454546 0.472382
vt 0.636364 0.472382
vt 0.818182 0.472382
vt 0.090910 0.472382
vt 0.272728 0.472382
vt 0.954545 0.078731
vt 0.136365 0.078731
vt 0.318182 0.078731
vt 0.227273 0.078731
vt 0.181819 0.157461
vt 0.363637 0.157461
vt 0.500000 0.078731
vt 0.409092 0.078731
vt 0.772727 0.078731
vt 0.863636 0.078731
vt 0.909091 0.157461
vt 0.590909 0.078731
vt 0.681818 0.078731
vt 0.727273 0.157461
vt 0.545455 0.157461
vt 0.318182 0.236191
vt 0.409092 0.236191
vt 0.136365 0.236191
vt 0.227273 0.236191
vt 0.863636 0.236191
vt 0.045455 0.236191
vt 0.954545 0.236191
vt 0.681818 0.236191
vt 0.772727 0.236191
vt 0.500000 0.236191
vt 0.590909 0.236191
vt 0.272728 0.314921
vt 0.090910 0.314921
vt 0.818182 0.314921
vt 0.636364 0.314921
vt 0.454546 0.314921
vt 0.136365 0.393651
vt 0.227273 0.393651
vt 0.409092 0.393651
vt 0.318182 0.393651
vt 0.863636 0.393651
vt 0.045455 0.393651
vt 0.681818 0.393651
vt 0.772727 0.393651
vt 0.500000 0.393651
vt 0.590909 0.393651
s 0
f 1/2/1 5/6/1 2/3/1
f 2/3/2 5/7/2 4/5/2
f 4/5/3 5/8/3 3/4/3
f 3/4/4 5/9/4 1/1/4
f 4/5/5 3/4/5 6/10/5
f 2/3/6 4/5/6 6/11/6
f 3/4/7 1/1/7 6/12/7
f 1/2/8 2/3/8 6/13/8
f 7/14/9 20/39/9 19/37/9
f 8/19/10 20/38/10 22/41/10
f 7/15/11 19/36/11 24/45/11
f 7/16/12 24/44/12 26/48/12
f 7/17/13 26/47/13 23/42/13
f 8/19/14 22/41/14 29/51/14
f 9/21/15 21/40/15 31/53/15
f 10/22/16 25/46/16 33/55/16
f 11/23/17 27/49/17 35/58/17
f 12/24/18 28/50/18 37/60/18
f 8/19/19 29/51/19 32/54/19
f 9/21/20 31/53/20 34/56/20
f 10/22/21 33/55/21 36/59/21
f 11/23/22 35/58/22 38/61/22
f 12/24/23 37/60/23 30/52/23
f 13/25/24 39/62/24 44/68/24
f 14/26/25 40/63/25 46/72/25
f 15/28/26 41/64/26 47/74/26
f 16/29/27 42/65/27 48/76/27
f 17/30/28 43/66/28 45/69/28
f 45/69/29 48/75/29 18/31/29
f 45/69/30 43/66/30 48/75/30
f 43/66/31 16/29/31 48/75/31
f 48/76/32 47/73/32 18/32/32
f 48/76/33 42/65/33 47/73/33
f 42/65/34 15/28/34 47/73/34
f 47/74/35 46/71/35 18/33/35
f 47/74/36 41/64/36 46/71/36
f 41/64/37 14/27/37 46/71/37
f 46/72/38 44/67/38 18/34/38
f 46/72/39 40/63/39 44/67/39
f 40/63/40 13/25/40 44/67/40
f 44/68/41 45/70/41 18/35/41
f 44/68/42 39/62/42 45/70/42
f 39/62/43 17/30/43 45/70/43
f 30/52/44 43/66/44 17/30/44
f 30/52/45 37/60/45 43/66/45
f 37/60/46 16/29/46 43/66/46
f 38/61/47 42/65/47 16/29/47
f 38/61/48 35/58/48 42/65/48
f 35/58/49 15/28/49 42/65/49
f 36/59/50 41/64/50 15/28/50
f 36/59/51 33/55/51 41/64/51
f 33/55/52 14/27/52 41/64/52
f 34/56/53 40/63/53 14/26/53
f 34/56/54 31/53/54 40/63/54
f 31/53/55 13/25/55 40/63/55
f 32/54/56 39/62/56 13/25/56
f 32/54/57 29/51/57 39/62/57
f 29/51/58 17/30/58 39/62/58
f 37/60/59 38/61/59 16/29/59
f 37/60/60 28/50/60 38/61/60
f 28/50/61 11/23/61 38/61/61
f 35/58/62 36/59/62 15/28/62
f 35/58/63 27/49/63 36/59/63
f 27/49/64 10/22/64 36/59/64
f 33/55/65 34/57/65 14/27/65
f 33/55/66 25/46/66 34/57/66
f 25/46/67 9/20/67 34/57/67
f 31/53/68 32/54/68 13/25/68
f 31/53/69 21/40/69 32/54/69
f 21/40/70 8/19/70 32/54/70
f 29/51/71 30/52/71 17/30/71
f 29/51/72 22/41/72 30/52/72
f 22/41/73 12/24/73 30/52/73
f 23/42/74 28/50/74 12/24/74
f 23/42/75 26/47/75 28/50/75
f 26/47/76 11/23/76 28/50/76
f 26/48/77 27/49/77 11/23/77
f 26/48/78 24/44/78 27/49/78
f 24/44/79 10/22/79 27/49/79
f 24/45/80 25/46/80 10/22/80
f 24/45/81 19/36/81 25/46/81
f 19/36/82 9/20/82 25/46/82
f 22/41/83 23/43/83 12/24/83
f 22/41/84 20/38/84 23/43/84
f 20/38/85 7/18/85 23/43/85
f 19/37/86 21/40/86 9/21/86
f 19/37/87 20/39/87 21/40/87
f 20/39/88 8/19/88 21/40/88
f 49/77/9 62/102/9 61/100/9
f 50/82/10 62/101/10 64/104/10
f 49/78/11 61/99/11 66/108/11
f 49/79/12 66/107/12 68/111/12
f 49/80/13 68/110/13 65/105/13
f 50/82/14 64/104/14 71/114/14
f 51/84/15 63/103/15 73/116/15
f 52/85/16 67/109/16 75/118/16
f 53/86/17 69/112/17 77/121/17
f 54/87/18 70/113/18 79/123/18
f 50/82/19 71/114/19 74/117/19
f 51/84/20 73/116/20 76/119/20
f 52/85/21 75/118/21 78/122/21
f 53/86/22 77/121/22 80/124/22
f 54/87/23 79/123/23 72/115/23
f 55/88/24 81/125/24 86/131/24
f 56/89/25 82/126/25 88/135/25
f 57/91/26 83/127/26 89/137/26
f 58/92/27 84/128/27 90/139/27
f 59/93/28 85/129/28 87/132/28
f 87/132/29 90/138/29 60/94/29
f 87/132/30 85/129/30 90/138/30
f 85/129/31 58/92/31 90/138/31
f 90/139/32 89/136/32 60/95/32
f 90/139/33 84/128/33 89/136/33
f 84/128/34 57/91/34 89/136/34
f 89/137/35 88/134/35 60/96/35
f 89/137/36 83/127/36 88/134/36
f 83/127/37 56/90/37 88/134/37
f 88/135/38 86/130/38 60/97/38
f 88/135/39 82/126/39 86/130/39
f 82/126/40 55/88/40 86/130/40
f 86/131/41 87/133/41 60/98/41
f 86/131/42 81/125/42 87/133/42
f 81/125/43 59/93/43 87/133/43
f 72/115/44 85/129/44 59/93/44
f 72/115/45 79/123/45 85/129/45
f 79/123/46 58/92/46 85/129/46
f 80/124/47 84/128/47 58/92/47
f 80/124/48 77/121/48 84/128/48
f 77/121/49 57/91/49 84/128/49
f 78/122/50 83/127/50 57/91/50
f 78/122/51 75/118/51 83/127/51
f 75/118/52 56/90/52 83/127/52
f 76/119/53 82/126/53 56/89/53
f 76/119/54 73/116/54 82/126/54
f 73/116/55 55/88/55 82/126/55
f 74/117/56 81/125/56 55/88/56
f 74/117/57 71/114/57 81/125/57
f 71/114/58 59/93/58 81/125/58
f 79/123/59 80/124/59 58/92/59
f 79/123/60 70/113/60 80/124/60
f 70/113/61 53/86/61 80/124/61
f 77/121/62 78/122/62 57/91/62
f 77/121/63 69/112/63 78/122/63
f 69/112/64 52/85/64 78/122/64
f 75/118/65 76/120/65 56/90/65
f 75/118/66 67/109/66 76/120/66
f 67/109/67 51/83/67 76/120/67
f 73/116/68 74/117/68 55/88/68
f 73/116/69 63/103/69 74/117/69
f 63/103/70 50/82/70 74/117/70
f 71/114/71 72/115/71 59/93/71
f 71/114/72 64/104/72 72/115/72
f 64/104/73 54/87/73 72/115/73
f 65/105/74 70/113/74 54/87/74
f 65/105/75 68/110/75 70/113/75
f 68/110/76 53/86/76 70/113/76
f 68/111/77 69/112/77 53/86/77
f 68/111/78 66/107/78 69/112/78
f 66/107/79 52/85/79 69/112/79
f 66/108/80 67/109/80 52/85/80
f 66/108/81 61/99/81 67/109/81
f 61/99/82 51/83/82 67/109/82
f 64/104/83 65/106/83 54/87/83
f 64/104/84 62/101/84 65/106/84
f 62/101/85 49/81/85 65/106/85
f 61/100/86 63/103/86 51/84/86
f 61/100/87 62/102/87 63/103/87
f 62/102/88 50/82/88 63/103/88
